<svg width="18" height="18" viewBox="0 0 18 18" fill="none" xmlns="http://www.w3.org/2000/svg">
<path d="M17.5356 16.302C17.8881 16.6545 17.8881 17.1832 17.5356 17.5356C17.3594 17.7119 17.095 17.8 16.9188 17.8C16.7426 17.8 16.4782 17.7119 16.302 17.5356L8.9 10.1337L1.49802 17.5356C1.32178 17.7119 1.05743 17.8 0.881189 17.8C0.704951 17.8 0.440594 17.7119 0.264356 17.5356C-0.0881188 17.1832 -0.0881188 16.6545 0.264356 16.302L7.66634 8.9L0.264356 1.49802C-0.0881188 1.14554 -0.0881188 0.616832 0.264356 0.264356C0.616832 -0.0881188 1.14554 -0.0881188 1.49802 0.264356L8.9 7.66634L16.302 0.264356C16.6545 -0.0881188 17.1832 -0.0881188 17.5356 0.264356C17.8881 0.616832 17.8881 1.14554 17.5356 1.49802L10.1337 8.9L17.5356 16.302Z" fill="#303E3D"/>
</svg>
