<svg width="12" height="7" viewBox="0 0 12 7" fill="none" xmlns="http://www.w3.org/2000/svg">
<path d="M0.876953 0.5C0.977777 0.5 1.05475 0.530412 1.13281 0.608398L5.43555 4.93555L5.78906 5.29102L10.4717 0.608398C10.5493 0.5308 10.6158 0.50883 10.6963 0.511719C10.7906 0.515167 10.872 0.547734 10.958 0.633789C11.0361 0.711877 11.0664 0.788789 11.0664 0.889648C11.0663 0.990272 11.0359 1.06658 10.958 1.14453L6.03906 6.06348C5.9849 6.11764 5.94222 6.14356 5.91406 6.15527C5.87854 6.17004 5.83866 6.17869 5.79004 6.17871C5.76558 6.17871 5.74323 6.17591 5.72266 6.17188L5.66504 6.15527L5.6123 6.125C5.59155 6.11053 5.56793 6.09039 5.54102 6.06348L0.59668 1.12012C0.522843 1.04628 0.496654 0.97665 0.5 0.881836C0.503794 0.774532 0.53981 0.690659 0.62207 0.608398C0.699995 0.530589 0.776363 0.500076 0.876953 0.5Z" fill="#F0EBE2" stroke="#F0EBE2"/>
</svg>
